<?xml version="1.0" encoding="UTF-8" standalone="no"?>
<svg
   xmlns:dc="http://purl.org/dc/elements/1.1/"
   xmlns:cc="http://creativecommons.org/ns#"
   xmlns:rdf="http://www.w3.org/1999/02/22-rdf-syntax-ns#"
   xmlns:svg="http://www.w3.org/2000/svg"
   xmlns="http://www.w3.org/2000/svg"
   xmlns:xlink="http://www.w3.org/1999/xlink"
   xmlns:sodipodi="http://sodipodi.sourceforge.net/DTD/sodipodi-0.dtd"
   xmlns:inkscape="http://www.inkscape.org/namespaces/inkscape"
   id="svg46"
   xml:space="preserve"
   enable-background="new 0 0 1000 1000"
   viewBox="0 0 1000 1000"
   y="0px"
   x="0px"
   version="1.1"
   sodipodi:docname="icon.svg"
   inkscape:version="0.92.2 (5c3e80d, 2017-08-06)"><sodipodi:namedview
     pagecolor="#ffffff"
     bordercolor="#666666"
     borderopacity="1"
     objecttolerance="10"
     gridtolerance="10"
     guidetolerance="10"
     inkscape:pageopacity="0"
     inkscape:pageshadow="2"
     inkscape:window-width="1388"
     inkscape:window-height="797"
     id="namedview46"
     showgrid="false"
     inkscape:zoom="0.3337544"
     inkscape:cx="-620.86484"
     inkscape:cy="379.41767"
     inkscape:window-x="101"
     inkscape:window-y="276"
     inkscape:window-maximized="0"
     inkscape:current-layer="layer1" /><defs
     id="defs50"><linearGradient
       id="linearGradient939"><stop
         id="stop931"
         offset="0"
         style="stop-color:#ffd62c;stop-opacity:1" /><stop
         style="stop-color:#ff4446;stop-opacity:1"
         offset="0.29848975"
         id="stop933" /><stop
         style="stop-color:#d06ad8;stop-opacity:1"
         offset="0.69003677"
         id="stop935" /><stop
         id="stop937"
         offset="1"
         style="stop-color:#0000ff;stop-opacity:1" /></linearGradient><linearGradient
       id="linearGradient882"><stop
         style="stop-color:#ffd62c;stop-opacity:1"
         offset="0"
         id="stop874" /><stop
         id="stop876"
         offset="0.22603622"
         style="stop-color:#ff4446;stop-opacity:1" /><stop
         id="stop878"
         offset="0.64063877"
         style="stop-color:#d06ad8;stop-opacity:1" /><stop
         style="stop-color:#0000ff;stop-opacity:1"
         offset="1"
         id="stop880" /></linearGradient><linearGradient
       gradientUnits="userSpaceOnUse"
       y2="161.06693"
       x2="716.20001"
       y1="936.49054"
       x1="198.95424"
       id="linearGradient866"
       xlink:href="#linearGradient882" /><linearGradient
       y2="161.06693"
       x2="716.20001"
       y1="936.49054"
       x1="198.95424"
       gradientUnits="userSpaceOnUse"
       id="linearGradient872"
       xlink:href="#linearGradient882" /><linearGradient
       y2="161.06693"
       x2="716.20001"
       y1="936.49054"
       x1="198.95424"
       gradientUnits="userSpaceOnUse"
       id="linearGradient914"
       xlink:href="#linearGradient882" /><linearGradient
       y2="161.06693"
       x2="716.20001"
       y1="936.49054"
       x1="198.95424"
       gradientUnits="userSpaceOnUse"
       id="linearGradient916"
       xlink:href="#linearGradient882" /><linearGradient
       y2="161.06693"
       x2="716.20001"
       y1="936.49054"
       x1="198.95424"
       gradientUnits="userSpaceOnUse"
       id="linearGradient918"
       xlink:href="#linearGradient882" /><linearGradient
       y2="161.06693"
       x2="716.20001"
       y1="936.49054"
       x1="198.95424"
       gradientUnits="userSpaceOnUse"
       id="linearGradient920"
       xlink:href="#linearGradient882" /><linearGradient
       y2="161.06693"
       x2="716.20001"
       y1="936.49054"
       x1="198.95424"
       gradientUnits="userSpaceOnUse"
       id="linearGradient922"
       xlink:href="#linearGradient882" /><linearGradient
       y2="161.06693"
       x2="716.20001"
       y1="936.49054"
       x1="198.95424"
       gradientUnits="userSpaceOnUse"
       id="linearGradient924"
       xlink:href="#linearGradient882" /><linearGradient
       y2="161.06693"
       x2="716.20001"
       y1="936.49054"
       x1="198.95424"
       gradientUnits="userSpaceOnUse"
       id="linearGradient926"
       xlink:href="#linearGradient882" /><linearGradient
       y2="161.06693"
       x2="716.20001"
       y1="936.49054"
       x1="198.95424"
       gradientUnits="userSpaceOnUse"
       id="linearGradient928"
       xlink:href="#linearGradient882" /><linearGradient
       y2="161.06693"
       x2="716.20001"
       y1="936.49054"
       x1="198.95424"
       gradientUnits="userSpaceOnUse"
       id="linearGradient930"
       xlink:href="#linearGradient882" /><linearGradient
       y2="161.06693"
       x2="716.20001"
       y1="936.49054"
       x1="198.95424"
       gradientUnits="userSpaceOnUse"
       id="linearGradient932"
       xlink:href="#linearGradient882" /><linearGradient
       y2="161.06693"
       x2="716.20001"
       y1="936.49054"
       x1="198.95424"
       gradientUnits="userSpaceOnUse"
       id="linearGradient934"
       xlink:href="#linearGradient882" /><linearGradient
       y2="161.06693"
       x2="716.20001"
       y1="936.49054"
       x1="198.95424"
       gradientUnits="userSpaceOnUse"
       id="linearGradient936"
       xlink:href="#linearGradient882" /><linearGradient
       y2="161.06693"
       x2="716.20001"
       y1="936.49054"
       x1="198.95424"
       gradientUnits="userSpaceOnUse"
       id="linearGradient938"
       xlink:href="#linearGradient882" /><linearGradient
       y2="161.06693"
       x2="716.20001"
       y1="936.49054"
       x1="198.95424"
       gradientUnits="userSpaceOnUse"
       id="linearGradient940"
       xlink:href="#linearGradient882" /><linearGradient
       y2="161.06693"
       x2="716.20001"
       y1="936.49054"
       x1="198.95424"
       gradientUnits="userSpaceOnUse"
       id="linearGradient942"
       xlink:href="#linearGradient882" /><linearGradient
       y2="161.06693"
       x2="716.20001"
       y1="936.49054"
       x1="198.95424"
       gradientUnits="userSpaceOnUse"
       id="linearGradient944"
       xlink:href="#linearGradient882" /><linearGradient
       inkscape:collect="always"
       xlink:href="#linearGradient939"
       id="linearGradient892"
       x1="122.88992"
       y1="907.49689"
       x2="961.04633"
       y2="62.564194"
       gradientUnits="userSpaceOnUse"
       gradientTransform="matrix(0.9604,0,0,0.9604,19.800836,19.800459)" /></defs><metadata
     id="metadata2"> Svg Vector Icons : http://www.onlinewebfonts.com/icon <rdf:RDF><cc:Work
     rdf:about=""><dc:format>image/svg+xml</dc:format><dc:type
       rdf:resource="http://purl.org/dc/dcmitype/StillImage" /><dc:title /></cc:Work></rdf:RDF></metadata><g
     inkscape:groupmode="layer"
     id="layer1"
     inkscape:label="Layer 1"><ellipse
       style="fill:#ffffff;fill-opacity:1;stroke:url(#linearGradient892);stroke-width:14.40600014;stroke-miterlimit:4;stroke-dasharray:none"
       id="path863"
       cx="500.02112"
       cy="500.0116"
       rx="480.17697"
       ry="480.20129" /></g><g
     inkscape:groupmode="layer"
     id="layer2"
     inkscape:label="Layer 2"><g
       transform="matrix(0.6,0,0,0.6,241.60382,147.10508)"
       style="opacity:1;fill:url(#linearGradient866);fill-opacity:1"
       id="g44"><g
         style="fill:url(#linearGradient914);fill-opacity:1"
         id="g12"><path
           style="fill:url(#linearGradient872);fill-opacity:1"
           id="path4"
           d="m 825.9,562.1 c -4.7,0 -9.1,1 -13.7,1.4 4.7,-28.8 7.8,-32.1 8.4,-62.4 0,0.2 -0.1,0.4 -0.1,0.7 0.4,-2.7 0.9,-5.4 0.9,-8.1 C 814.2,342.5 632.4,255.8 427.6,254 222.8,255.8 41.1,342.5 33.7,493.7 c 0.2,2.7 0.8,5.4 1,8.1 v 0 C 40.8,772.6 214.2,990 427.6,990 c 116.9,0 221.6,-65.5 293.5,-168.9 25.6,29.1 62.8,47.8 104.8,47.8 77.5,0 136.55473,-88.05095 136.55473,-165.65095 C 962.45473,625.84905 903.4,562.1 825.9,562.1 Z M 682.1,598.2 C 619.2,634 527.6,657.8 426,657.7 324.2,657.9 232.6,634 169.6,598.2 105.8,561.9 75.7,517.5 76.3,478.1 75.7,438.4 106,393.9 169.6,357.7 232.5,321.8 324.2,298.1 426,298.2 c 101.7,-0.2 193.3,23.6 256.1,59.5 63.8,36.3 94,80.7 93.5,120.4 0.5,39.3 -29.7,83.8 -93.5,120.1 z m 139.11291,228.52492 c -29.7,0 -70.08185,-21.75019 -77.38185,-49.15019 5.09942,-11.10765 20.00913,-41.73416 32.03489,-75.01921 11.79267,-32.6399 20.72582,-67.89378 23.56148,-84.04125 10.1,-6.5 17.59237,-11.2 42.47723,-6.90568 37.64716,3.57074 78.3632,32.77378 76.9651,89.89634 4.49432,69.10743 -62.25685,125.11999 -97.65685,125.21999 z"
           inkscape:connector-curvature="0" /></g><g
         style="fill:url(#linearGradient916);fill-opacity:1"
         id="g14" /><g
         style="fill:url(#linearGradient918);fill-opacity:1"
         id="g16" /><g
         style="fill:url(#linearGradient920);fill-opacity:1"
         id="g18" /><g
         style="fill:url(#linearGradient922);fill-opacity:1"
         id="g20" /><g
         style="fill:url(#linearGradient924);fill-opacity:1"
         id="g22" /><g
         style="fill:url(#linearGradient926);fill-opacity:1"
         id="g24" /><g
         style="fill:url(#linearGradient928);fill-opacity:1"
         id="g26" /><g
         style="fill:url(#linearGradient930);fill-opacity:1"
         id="g28" /><g
         style="fill:url(#linearGradient932);fill-opacity:1"
         id="g30" /><g
         style="fill:url(#linearGradient934);fill-opacity:1"
         id="g32" /><g
         style="fill:url(#linearGradient936);fill-opacity:1"
         id="g34" /><g
         style="fill:url(#linearGradient938);fill-opacity:1"
         id="g36" /><g
         style="fill:url(#linearGradient940);fill-opacity:1"
         id="g38" /><g
         style="fill:url(#linearGradient942);fill-opacity:1"
         id="g40" /><g
         style="fill:url(#linearGradient944);fill-opacity:1"
         id="g42" /></g></g></svg>